<svg width="56.000000" height="56.000000" viewBox="0 0 56 56" fill="none" xmlns="http://www.w3.org/2000/svg" xmlns:xlink="http://www.w3.org/1999/xlink">
	<desc>
			Created with Pixso.
	</desc>
	<defs>
		<clipPath id="clip5_549">
			<rect id="Frame" width="24.000000" height="24.000000" transform="translate(16.000000 16.000000)" fill="white" fill-opacity="0"/>
		</clipPath>
	</defs>
	<rect id="Frame 5" rx="14.000000" width="55.000000" height="55.000000" transform="translate(0.500000 0.500000)" fill="#12132D" fill-opacity="0.030000"/>
	<rect id="Frame" width="24.000000" height="24.000000" transform="translate(16.000000 16.000000)" fill="#FFFFFF" fill-opacity="0"/>
	<g clip-path="url(#clip5_549)">
		<path id="Vector" d="M19 19L19 20.5L19 31L19 37M19 31L21.77 30.3069C23.8544 29.7861 26.0564 30.0281 27.978 30.989L28.086 31.043C29.9692 31.9841 32.1227 32.2354 34.172 31.7529L37.286 31.021C36.9046 27.5317 36.903 24.0115 37.281 20.522L34.171 21.2539C32.1219 21.7358 29.9688 21.4844 28.086 20.543L27.978 20.489C26.0564 19.5281 23.8544 19.2861 21.77 19.8069L19 20.5" stroke="#12132D" stroke-opacity="0.600000" stroke-width="1.500000" stroke-linejoin="round" stroke-linecap="round"/>
	</g>
	<rect id="Frame 5" rx="14.000000" width="55.000000" height="55.000000" transform="translate(0.500000 0.500000)" stroke="#030712" stroke-opacity="0.100000" stroke-width="1.000000"/>
</svg>
