<svg width="56.000000" height="60.000000" viewBox="0 0 56 60" fill="none" xmlns="http://www.w3.org/2000/svg" xmlns:xlink="http://www.w3.org/1999/xlink">
	<desc>
			Created with Pixso.
	</desc>
	<defs>
		<clipPath id="clip5_543">
			<rect id="Frame" width="24.000000" height="24.000000" transform="translate(16.000000 18.000000)" fill="white" fill-opacity="0"/>
		</clipPath>
	</defs>
	<rect id="Frame 2" rx="14.000000" width="55.000000" height="59.000000" transform="translate(0.500000 0.500000)" fill="#12132D" fill-opacity="0.030000"/>
	<rect id="Frame" width="24.000000" height="24.000000" transform="translate(16.000000 18.000000)" fill="#FFFFFF" fill-opacity="0"/>
	<g clip-path="url(#clip5_543)">
		<path id="Vector" d="M18.25 30L27.204 21.0452C27.644 20.606 28.356 20.606 28.795 21.0452L37.75 30M20.5 27.75L20.5 37.875C20.5 38.4961 21.004 39 21.625 39L25.75 39L25.75 34.125C25.75 33.5042 26.254 33 26.875 33L29.125 33C29.746 33 30.25 33.5042 30.25 34.125L30.25 39L34.375 39C34.996 39 35.5 38.4961 35.5 37.875L35.5 27.75M24.25 39L32.5 39" stroke="#12132D" stroke-opacity="0.600000" stroke-width="1.500000" stroke-linejoin="round"/>
	</g>
	<rect id="Frame 2" rx="14.000000" width="55.000000" height="59.000000" transform="translate(0.500000 0.500000)" stroke="#030712" stroke-opacity="0.100000" stroke-width="1.000000"/>
</svg>
