<svg width="56.000000" height="56.000000" viewBox="0 0 56 56" fill="none" xmlns="http://www.w3.org/2000/svg" xmlns:xlink="http://www.w3.org/1999/xlink">
	<desc>
			Created with Pixso.
	</desc>
	<defs>
		<clipPath id="clip5_545">
			<rect id="Frame" width="24.000000" height="24.000000" transform="translate(16.000000 16.000000)" fill="white" fill-opacity="0"/>
		</clipPath>
	</defs>
	<rect id="Frame 3" rx="14.000000" width="55.000000" height="55.000000" transform="translate(0.500000 0.500000)" fill="#12132D" fill-opacity="0.030000"/>
	<rect id="Frame" width="24.000000" height="24.000000" transform="translate(16.000000 16.000000)" fill="#FFFFFF" fill-opacity="0"/>
	<g clip-path="url(#clip5_545)">
		<path id="Vector" d="M35.5 23.125L32.862 20.4871L34.549 18.7991C34.9007 18.4473 35.3776 18.2498 35.875 18.2498C36.3724 18.2498 36.8493 18.4473 37.201 18.7991C37.5527 19.1506 37.7502 19.6277 37.7502 20.125C37.7502 20.6223 37.5527 21.0994 37.201 21.4509L22.832 35.8201C22.3033 36.3484 21.6514 36.7368 20.935 36.95L18.25 37.75L19.05 35.0649C19.2633 34.3486 19.6516 33.6968 20.18 33.168L32.863 20.4871L32.862 20.4871" stroke="#12132D" stroke-opacity="0.600000" stroke-width="1.500000" stroke-linejoin="round"/>
	</g>
	<rect id="Frame 3" rx="14.000000" width="55.000000" height="55.000000" transform="translate(0.500000 0.500000)" stroke="#030712" stroke-opacity="0.100000" stroke-width="1.000000"/>
</svg>
